<svg width="72" height="72" viewBox="0 0 72 72" fill="none" xmlns="http://www.w3.org/2000/svg">
<g clip-path="url(#clip0_201_20)">
<path d="M72 0H0V72H72V0Z" fill="#302C3F"/>
<path d="M36 21C32.0218 21 28.2065 22.5803 25.3934 25.3934C22.5803 28.2065 21 32.0218 21 36C21 39.9782 22.5803 43.7936 25.3934 46.6066C28.2065 49.4197 32.0218 51 36 51C39.9782 51 43.7936 49.4197 46.6066 46.6066C49.4197 43.7936 51 39.9782 51 36C51 32.0218 49.4197 28.2065 46.6066 25.3934C43.7936 22.5803 39.9782 21 36 21Z" fill="white"/>
<path d="M57.0934 25.0072C56.5864 23.0493 55.1002 21.5058 53.2155 20.9786C49.7724 20 35.9995 20 35.9995 20C35.9995 20 22.2272 20 18.784 20.9415C16.9356 21.4681 15.4131 23.0495 14.9061 25.0072C14 28.5834 14 36 14 36C14 36 14 43.4539 14.9061 46.9928C15.4137 48.9505 16.8993 50.4939 18.7843 51.0211C22.2634 52 36 52 36 52C36 52 49.7724 52 53.2155 51.0585C55.1005 50.5316 56.5864 48.9881 57.094 47.0304C57.9998 43.4539 57.9998 36.0377 57.9998 36.0377C57.9998 36.0377 58.0361 28.5834 57.0934 25.0072ZM31.6145 42.8517V29.1483L43.0673 36L31.6145 42.8517Z" fill="#83808C"/>
</g>
<defs>
<clipPath id="clip0_201_20">
<rect width="72" height="72" fill="white"/>
</clipPath>
</defs>
</svg>
