<svg width="72" height="72" viewBox="0 0 72 72" fill="none" xmlns="http://www.w3.org/2000/svg">
<rect width="72" height="72" fill="#302C3F"/>
<path d="M18.3046 26.5457C16.6161 26.5457 15.2256 27.9362 15.2256 29.6578V55.2499C15.2256 56.9384 16.6161 58.3289 18.3046 58.3289C20.0262 58.3289 21.4167 56.9384 21.4167 55.2499V29.6578C21.4167 27.9362 20.0262 26.5457 18.3046 26.5457" fill="white"/>
<path d="M35.6874 14.3289C33.9989 14.3289 32.6084 15.7194 32.6084 17.441V55.2497C32.6084 56.9382 33.9989 58.3287 35.6874 58.3287C37.409 58.3287 38.7995 56.9382 38.7995 55.2497V17.441C38.7995 15.7194 37.409 14.3289 35.6874 14.3289" fill="white"/>
<path d="M52.8387 40.0531C51.1171 40.0531 49.7266 41.4436 49.7266 43.1652V55.2495C49.7266 56.9379 51.1171 58.3284 52.8056 58.3284C54.5272 58.3284 55.9177 56.9379 55.9177 55.2495V43.1652C55.9177 41.4436 54.5272 40.0531 52.8387 40.0531" fill="white"/>
</svg>
