<svg width="72" height="72" viewBox="0 0 72 72" fill="none" xmlns="http://www.w3.org/2000/svg">
<rect width="72" height="72" fill="#302C3F"/>
<path d="M35.8698 41.6099C32.6816 41.6099 30.1025 39.126 30.1025 36.0062C30.1025 32.8864 32.6816 30.3827 35.8698 30.3827C39.0581 30.3827 41.5762 32.8864 41.5762 36.0062C41.5762 39.126 39.0581 41.6099 35.8698 41.6099" fill="white"/>
<path opacity="0.4" d="M54.1866 40.6957C53.8008 40.0995 53.2525 39.5034 52.5417 39.1258C51.9731 38.8477 51.6076 38.3906 51.2826 37.8541C50.247 36.1452 50.8562 33.8997 52.5823 32.8863C54.6131 31.7537 55.2629 29.23 54.0851 27.2628L52.7245 24.918C51.5669 22.9508 49.0285 22.2553 47.0181 23.4078C45.231 24.3616 42.9363 23.7257 41.9006 22.0367C41.5757 21.4803 41.3929 20.8842 41.4335 20.288C41.4945 19.5131 41.2508 18.7778 40.8852 18.1817C40.1339 16.9497 38.7733 16.1151 37.2705 16.1151H34.4072C32.9247 16.1549 31.5641 16.9497 30.8128 18.1817C30.4269 18.7778 30.2035 19.5131 30.2442 20.288C30.2848 20.8842 30.102 21.4803 29.7771 22.0367C28.7414 23.7257 26.4467 24.3616 24.6799 23.4078C22.6492 22.2553 20.1311 22.9508 18.9532 24.918L17.5926 27.2628C16.4351 29.23 17.085 31.7537 19.0954 32.8863C20.8215 33.8997 21.4307 36.1452 20.4154 37.8541C20.0701 38.3906 19.7046 38.8477 19.136 39.1258C18.4455 39.5034 17.8363 40.0995 17.5114 40.6957C16.76 41.9277 16.8006 43.4776 17.552 44.7692L18.9532 47.1538C19.7046 48.4255 21.1058 49.2204 22.568 49.2204C23.2584 49.2204 24.0707 49.0217 24.7205 48.6242C25.2282 48.2864 25.8374 48.1672 26.5076 48.1672C28.518 48.1672 30.2035 49.8165 30.2442 51.7837C30.2442 54.0689 32.1124 55.8573 34.4681 55.8573H37.2299C39.5653 55.8573 41.4335 54.0689 41.4335 51.7837C41.4945 49.8165 43.18 48.1672 45.1904 48.1672C45.8403 48.1672 46.4495 48.2864 46.9775 48.6242C47.6273 49.0217 48.4193 49.2204 49.1301 49.2204C50.5719 49.2204 51.9731 48.4255 52.7245 47.1538L54.146 44.7692C54.8771 43.4379 54.938 41.9277 54.1866 40.6957" fill="white"/>
</svg>
