<svg width="72" height="72" viewBox="0 0 72 72" fill="none" xmlns="http://www.w3.org/2000/svg">
<rect width="72" height="72" fill="#302C3F"/>
<path d="M36 16C30.6957 16 25.6086 18.1071 21.8579 21.8579C18.1071 25.6086 16 30.6957 16 36C16 41.3043 18.1071 46.3914 21.8579 50.1421C25.6086 53.8929 30.6957 56 36 56C41.3043 56 46.3914 53.8929 50.1421 50.1421C53.8929 46.3914 56 41.3043 56 36C56 30.6957 53.8929 25.6086 50.1421 21.8579C46.3914 18.1071 41.3043 16 36 16V16Z" fill="#83808C"/>
<mask id="mask0" mask-type="alpha" maskUnits="userSpaceOnUse" x="16" y="16" width="40" height="40">
<path d="M36 16C30.6957 16 25.6086 18.1071 21.8579 21.8579C18.1071 25.6086 16 30.6957 16 36C16 41.3043 18.1071 46.3914 21.8579 50.1421C25.6086 53.8929 30.6957 56 36 56C41.3043 56 46.3914 53.8929 50.1421 50.1421C53.8929 46.3914 56 41.3043 56 36C56 30.6957 53.8929 25.6086 50.1421 21.8579C46.3914 18.1071 41.3043 16 36 16V16Z" fill="white"/>
</mask>
<g mask="url(#mask0)">
<path fill-rule="evenodd" clip-rule="evenodd" d="M42.4305 28.0348L44.4717 26.5038C44.88 26.1977 45.1862 25.7894 45.3903 25.177L48.3501 19.9718C50.4628 21.59 52.2587 23.6438 53.6071 25.9936H53.6576L53.9638 26.5039C55.4947 29.3617 56.4133 32.7298 56.4133 36.1999C56.4133 41.3031 54.4741 45.998 51.4122 49.5702L51.3101 49.4681C51.3078 49.4651 51.3056 49.462 51.3033 49.459C50.3693 50.5383 49.3142 51.5345 48.146 52.4278C48.146 52.4278 46.9212 50.3866 46.4109 49.366C45.4363 47.5054 44.3848 45.7986 44.1244 45.3807C43.6959 45.3257 40.0832 44.7595 40.0832 41.3031C40.0832 40.1804 40.0832 37.2206 45.1864 37.2206C48.2482 37.2206 50.2895 36.1999 50.2895 35.1793C50.2895 32.1174 49.2689 31.0968 49.2689 31.0968C49.3095 31.0655 49.3486 31.0314 49.3863 30.9946H49.1666C48.6563 30.9946 46.513 31.4029 45.1862 32.2194C44.2209 32.8336 44.029 33.4479 43.8725 33.9486C43.665 34.6127 43.5198 35.0771 41.716 35.0771C41.3078 35.0771 40.7974 33.3421 40.7974 32.6276C40.7974 32.3827 41.5813 31.9418 42.1561 31.6184C42.2998 31.5376 42.4305 31.4641 42.5325 31.4029C42.9408 31.1987 43.1449 30.6884 43.0428 30.2802L42.1243 29.1575C42.0222 28.7492 42.1243 28.341 42.4305 28.0348ZM26.8148 35.1792C26.8148 36.404 26.8148 37.2205 25.8963 37.2205C25.4953 37.2205 25.3277 36.8315 25.1388 36.3932C24.895 35.8274 24.6156 35.1792 23.7529 35.1792H22.8582C22.0158 35.3981 21.7119 35.9315 21.7119 36.4041V37.4247C21.7119 37.935 22.1201 38.2412 22.7325 38.2412C23.549 38.2412 23.6511 38.4453 23.6511 38.9556C23.6511 39.4659 24.1614 40.2824 24.7738 40.2824H26.713C26.713 40.3164 26.7131 40.3502 26.7134 40.3838L26.8148 40.2823H27.6313H29.2643C29.9788 40.2823 30.8973 40.9968 31.5097 41.6092C32.9386 43.3442 33.7551 43.3442 34.9799 43.3442V43.3451C34.98 43.3446 34.9801 43.3443 34.9801 43.3443C35.5924 43.3443 36.0007 44.467 36.0007 44.8753C36.0007 48.2434 33.9594 48.4475 33.9594 48.4475C33.9593 48.4475 33.9593 48.4475 33.9592 48.4475C33.9106 48.5933 33.7348 48.9182 33.4898 49.3713C32.7048 50.8225 31.2084 53.5891 30.8973 56C30.217 55.7959 29.5366 55.5465 28.8563 55.2819V55.2857L28.7933 55.2574C28.4741 55.1328 28.1548 55.0051 27.8356 54.8774L27.8354 54.8774V54.8263L26.815 54.3671V52.53C26.815 51.644 26.4304 50.4503 25.9951 49.0992C25.4276 47.3375 24.7738 45.3082 24.7738 43.3443C24.7738 41.7164 22.8911 40.6077 21.7146 39.9149C21.4159 39.739 21.1627 39.5899 20.9974 39.4659C20.9594 39.4374 20.9211 39.4087 20.8825 39.3798C19.6785 38.4776 18.2227 37.3867 17.6293 36.1999L16.9489 35.1792H15.5879L15.792 33.6483C15.7993 33.5914 15.8068 33.5345 15.8146 33.4778L15.7922 33.4442C16.2005 29.4638 18.3438 25.7895 18.3438 25.7895L18.4686 25.8311C20.9844 21.5758 25.0061 18.3217 29.8767 16.8079C28.4478 18.7471 27.7334 20.8904 27.7334 21.8089C27.7334 23.0337 29.0602 23.3399 30.7953 23.3399C32.8365 23.3399 32.9386 24.6667 32.9386 24.9729V30.076C32.9386 32.1173 31.2035 32.1173 29.8767 32.1173C26.7884 32.1173 26.8029 33.76 26.8136 34.9743C26.8142 35.0441 26.8148 35.1126 26.8148 35.1792Z" fill="white"/>
</g>
</svg>
